<?xml version="1.0" standalone="no"?>
<!DOCTYPE svg PUBLIC "-//W3C//DTD SVG 20010904//EN"
 "http://www.w3.org/TR/2001/REC-SVG-20010904/DTD/svg10.dtd">
<svg version="1.0" xmlns="http://www.w3.org/2000/svg"
 width="577.000000pt" height="433.000000pt" viewBox="0 0 577.000000 433.000000"
 preserveAspectRatio="xMidYMid meet">

<g transform="translate(0.000000,433.000000) scale(0.100000,-0.100000)"
fill="#000000" stroke="none">
<path d="M2075 2937 c-63 -21 -97 -42 -142 -89 -65 -66 -85 -123 -93 -255 -5
-106 -8 -114 -36 -150 -69 -85 -197 -130 -407 -141 l-122 -7 -3 -63 c-8 -173
102 -378 261 -482 64 -42 196 -90 247 -90 52 0 60 -8 60 -61 l0 -49 35 0 35 0
0 50 c0 44 3 50 25 56 40 10 48 1 49 -52 l1 -49 35 0 35 0 3 61 3 62 47 17
c71 27 176 100 227 158 59 67 121 192 140 282 9 43 15 127 15 218 l0 147 45
22 c25 12 44 27 42 33 -2 5 -22 20 -44 33 -37 20 -41 26 -47 74 -15 111 -93
216 -194 260 -57 26 -163 33 -217 15z m191 -82 c47 -20 100 -71 126 -123 22
-45 23 -56 23 -302 0 -235 -2 -260 -22 -325 -56 -178 -197 -315 -368 -360 -76
-19 -224 -19 -300 0 -179 47 -326 200 -370 387 -24 101 -30 94 93 101 296 17
462 131 462 318 0 92 16 158 50 212 29 47 96 93 153 108 38 9 110 2 153 -16z"/>
<path d="M2119 2681 c-16 -13 -23 -29 -23 -55 0 -46 23 -70 69 -70 46 0 69 24
69 70 0 41 -31 74 -69 74 -13 0 -33 -8 -46 -19z"/>
<path d="M1852 2288 c-6 -6 -12 -19 -12 -29 0 -55 -92 -99 -207 -99 -57 0 -65
-2 -74 -24 -22 -48 19 -169 83 -241 73 -84 221 -118 345 -79 111 34 213 170
213 283 0 45 -23 71 -48 55 -9 -6 -21 -39 -29 -75 -7 -37 -25 -81 -41 -104
-86 -123 -275 -140 -381 -34 -37 37 -81 123 -69 135 3 3 36 9 72 15 130 18
211 84 204 166 -2 29 -8 39 -23 41 -11 1 -26 -3 -33 -10z"/>
<path d="M2677 2093 c-4 -3 -7 -17 -7 -29 0 -16 7 -24 23 -26 l22 -3 3 -242 2
-243 31 0 c22 0 32 6 36 19 5 18 7 18 41 -6 32 -21 46 -24 97 -21 75 5 115 30
145 94 31 63 25 185 -11 239 -52 77 -161 96 -234 41 l-35 -27 0 85 c0 79 -2
86 -26 105 -26 20 -74 28 -87 14z m281 -223 c76 -47 85 -181 16 -245 -31 -29
-97 -34 -130 -10 -55 38 -72 155 -31 216 40 60 89 73 145 39z"/>
<path d="M3194 2086 c-3 -8 -4 -25 -2 -38 2 -18 9 -23 33 -23 28 0 30 3 30 35
0 31 -3 35 -28 38 -17 2 -29 -2 -33 -12z"/>
<path d="M3906 2084 c-10 -27 -7 -34 19 -44 23 -9 25 -14 25 -75 l0 -66 -30
21 c-66 47 -176 31 -224 -33 -75 -99 -48 -285 48 -331 47 -22 123 -21 164 4
17 11 32 24 32 30 0 20 19 9 22 -12 3 -20 10 -23 56 -26 50 -3 52 -2 52 23 0
18 -6 29 -20 32 -19 5 -20 14 -21 212 0 233 -3 261 -21 272 -24 15 -95 10
-102 -7z m-21 -208 c81 -34 96 -185 25 -248 -63 -57 -157 -23 -181 64 -20 74
10 160 64 183 41 18 50 18 92 1z"/>
<path d="M3147 1933 c-16 -15 -6 -44 18 -53 l25 -10 0 -138 c0 -166 7 -182 76
-182 40 0 44 2 44 25 0 18 -7 28 -25 35 l-25 10 0 148 c0 102 -4 152 -12 160
-13 13 -90 17 -101 5z"/>
<path d="M3357 1933 c-16 -15 -6 -44 18 -53 l25 -10 0 -160 0 -160 34 0 33 0
5 113 c6 150 29 192 121 212 24 5 28 10 25 33 -2 22 -9 28 -34 30 -31 3 -73
-27 -101 -73 -11 -18 -12 -16 -12 16 -1 19 -6 40 -13 47 -13 13 -90 17 -101 5z"/>
<path d="M4107 1933 c-13 -12 -7 -53 7 -53 8 0 42 -66 86 -166 79 -182 81
-195 29 -246 -29 -30 -46 -32 -91 -14 -11 5 -20 1 -28 -15 -11 -19 -10 -25 6
-36 47 -35 119 -27 161 16 19 19 57 101 113 241 56 140 91 215 101 217 10 3
16 12 14 21 -2 10 -4 23 -4 30 -1 7 -15 12 -36 12 -25 0 -38 -6 -48 -22 -12
-19 -86 -219 -104 -278 -2 -8 -31 53 -63 134 -33 82 -65 153 -72 158 -16 9
-62 11 -71 1z"/>
</g>
</svg>
